<svg xmlns="http://www.w3.org/2000/svg" shape-rendering="geometricPrecision" text-rendering="geometricPrecision" image-rendering="optimizeQuality" fill-rule="evenodd" clip-rule="evenodd" viewBox="0 0 512 490.153"><path fill="#EF4136" fill-rule="nonzero" d="M38.77 22.459h365.144c21.298 0 38.773 17.47 38.773 38.774v90.04H.003V61.227c0-21.298 17.469-38.768 38.767-38.768z"/><path fill="gray" fill-rule="nonzero" d="M403.914 438.378H38.772C17.489 438.378 0 420.888 0 399.606V141.977h442.691v257.624c0 21.322-17.46 38.777-38.777 38.777z"/><path fill="#fff" d="M42.912 425.958h356.862c16.775 0 30.496-13.761 30.496-30.497V141.977H12.42v253.489c0 16.761 13.721 30.492 30.492 30.492z"/><path fill="#fff" d="M241.286 425.959h158.489c16.775 0 30.495-13.762 30.495-30.499V212.514c-15.164-4.937-31.346-7.619-48.157-7.619-85.808 0-155.371 69.56-155.371 155.368 0 23.481 5.218 45.739 14.544 65.696z"/><path fill="#C72B20" fill-rule="nonzero" d="M307.989 49.26c20.62 0 37.365 16.757 37.365 37.366 0 20.601-16.758 37.363-37.365 37.363-20.593 0-37.363-16.77-37.363-37.363 0-20.618 16.756-37.366 37.363-37.366zm-174.858 0c20.62 0 37.365 16.757 37.365 37.366 0 20.601-16.758 37.363-37.365 37.363-20.593 0-37.363-16.77-37.363-37.363 0-20.618 16.756-37.366 37.363-37.366z"/><path fill="#1A1A1A" d="M81.244 299.214h51.536c3.104 0 5.64 2.621 5.64 5.638v48.014c0 3.017-2.621 5.635-5.64 5.635H81.244c-3.019 0-5.641-2.536-5.641-5.635v-48.014c0-3.099 2.537-5.638 5.641-5.638zm228.674-109.467h51.528c3.104 0 5.643 2.586 5.643 5.635v10.238a154.435 154.435 0 00-62.814 20.156v-30.394c0-3.098 2.539-5.635 5.643-5.635zm-114.484 0h52.983c3.104 0 5.64 2.616 5.64 5.635v48.017c0 3.02-2.616 5.635-5.64 5.635h-52.983c-3.025 0-5.64-2.536-5.64-5.635v-48.017c0-3.098 2.536-5.635 5.64-5.635zm-114.19 0h51.536c3.104 0 5.64 2.616 5.64 5.635v48.017c0 3.02-2.616 5.635-5.64 5.635H81.244c-3.025 0-5.641-2.536-5.641-5.635v-48.017c0-3.098 2.537-5.635 5.641-5.635zm114.19 109.467h43.769c-7.801 18.23-12.206 38.258-12.439 59.287h-31.33c-3.022 0-5.64-2.536-5.64-5.635v-48.014c0-3.099 2.536-5.638 5.64-5.638z"/><path fill="#1A1A1A" fill-rule="nonzero" d="M290.269 268.422c25.361-25.363 58.604-38.046 91.841-38.046 33.238 0 66.481 12.683 91.844 38.046C499.314 293.783 512 327.026 512 360.263c0 33.237-12.686 66.481-38.046 91.844-25.363 25.36-58.606 38.046-91.844 38.046-33.237 0-66.48-12.686-91.841-38.046-25.363-25.363-38.046-58.607-38.046-91.844 0-33.237 12.683-66.48 38.046-91.841z"/><path fill="#fff" d="M300.537 278.69c45.053-45.053 118.096-45.053 163.149 0s45.053 118.096 0 163.149-118.096 45.053-163.149 0-45.053-118.096 0-163.149z"/><path fill="#1A1A1A" d="M401.057 304.777v36.54h36.539c2.998 0 5.449 2.479 5.449 5.443v27.004c0 2.964-2.479 5.443-5.449 5.443h-36.539v36.539c0 2.97-2.48 5.449-5.443 5.449H368.61c-2.964 0-5.443-2.445-5.443-5.449v-36.539h-36.546c-2.963 0-5.443-2.445-5.443-5.443V346.76c0-2.998 2.451-5.443 5.443-5.443h36.546v-36.54a5.454 5.454 0 015.443-5.443h27.004c2.998 0 5.443 2.508 5.443 5.443z"/><path fill="#fff" d="M133.131 55.282c17.311 0 31.344 14.034 31.344 31.344 0 17.308-14.033 31.341-31.344 31.341-17.308 0-31.341-14.033-31.341-31.341 0-17.31 14.033-31.344 31.341-31.344zm174.858 0c17.31 0 31.344 14.034 31.344 31.344 0 17.308-14.034 31.341-31.344 31.341-17.308 0-31.341-14.033-31.341-31.341 0-17.31 14.033-31.344 31.341-31.344z"/><path fill="#1A1A1A" fill-rule="nonzero" d="M289.268 15.348C289.268 6.881 297.642 0 307.989 0c10.355 0 18.726 6.881 18.726 15.348v71.385c0 8.467-8.371 15.348-18.726 15.348-10.347 0-18.721-6.881-18.721-15.348V15.348zm-174.864 0C114.404 6.881 122.778 0 133.126 0c10.352 0 18.726 6.881 18.726 15.348v71.385c0 8.467-8.374 15.348-18.726 15.348-10.348 0-18.722-6.881-18.722-15.348V15.348z"/></svg>