<?xml version="1.0" encoding="UTF-8"?>
<svg version="1.1" xmlns="http://www.w3.org/2000/svg" width="512" height="512">
<path d="M0 0 C86.13 0 172.26 0 261 0 C261 9.57 261 19.14 261 29 C243.18 29 225.36 29 207 29 C207 112.49 207 195.98 207 282 C145.95 282 84.9 282 22 282 C22 198.51 22 115.02 22 29 C14.74 29 7.48 29 0 29 C0 19.43 0 9.86 0 0 Z " fill="#010002" transform="translate(0,214)"/>
<path d="M0 0 C8.1228573 8.55801037 12.72472734 19.17904084 12.48364258 31.01416016 C12.4745754 31.81987772 12.46550821 32.62559528 12.45616627 33.45572853 C12.1959979 45.15797103 10.72057189 56.78113825 9.38671875 68.3984375 C9.1017433 70.94080918 8.81748053 73.48326084 8.53388977 76.02578735 C7.94111203 81.31956533 7.34136435 86.61248343 6.7355957 91.90478516 C6.039654 97.98570087 5.35666683 104.06796555 4.68061608 110.15112245 C4.02355786 116.06099835 3.3577249 121.9698602 2.68799782 127.87831497 C2.40647818 130.36814756 2.12701761 132.85821393 1.84973717 135.34852219 C-2.61181016 175.2788204 -2.61181016 175.2788204 -15.29296875 185.8359375 C-26.13462271 193.34800636 -38.83357661 194.97207147 -51.7109375 194.78515625 C-53.21099838 194.7773539 -53.21099838 194.7773539 -54.74136353 194.76939392 C-57.91106565 194.75177436 -61.08042622 194.72072354 -64.25 194.6875 C-76.28064175 194.57983278 -88.29088424 194.48579887 -100.3125 195.0390625 C-101.55137466 195.09435875 -101.55137466 195.09435875 -102.8152771 195.15077209 C-123.39772465 196.19668706 -123.39772465 196.19668706 -141.44921875 204.79296875 C-144.19578945 207.99951264 -145.81495112 211.19102645 -147.375 215.0625 C-147.70193848 215.85906006 -148.02887695 216.65562012 -148.36572266 217.47631836 C-160.0694478 246.78327189 -168.96622609 277.1876806 -177.3515625 307.578125 C-177.75876488 309.0476955 -178.16599112 310.5172594 -178.57324219 311.98681641 C-179.33764581 314.74662451 -180.08959281 317.50937468 -180.83300781 320.27490234 C-183.81313381 331.12182932 -186.96175203 340.90212841 -197.09375 346.94921875 C-204.47908093 350.36613322 -212.5751714 351.05218531 -220.45703125 348.9296875 C-228.70972231 345.58362196 -234.31099295 340.44965593 -237.921875 332.2890625 C-240.85129288 324.1010994 -239.79238249 317.38837196 -237.74609375 309.13671875 C-237.52240616 308.21809052 -237.29871857 307.29946228 -237.06825256 306.35299683 C-234.50396181 295.93454794 -231.68781975 285.58622219 -228.8125 275.25 C-228.53320648 274.24352417 -228.25391296 273.23704834 -227.96615601 272.20007324 C-198.9226752 167.73095905 -198.9226752 167.73095905 -178.62890625 155.12890625 C-157.15350544 143.4012051 -132.96752625 139.73649936 -108.734375 138.93359375 C-107.31898438 138.78083984 -107.31898438 138.78083984 -105.875 138.625 C-104.44689931 135.76879863 -104.38811736 133.04387377 -104.04296875 129.86791992 C-103.9281163 128.82614342 -103.9281163 128.82614342 -103.8109436 127.76332092 C-103.55795175 125.46107289 -103.31030683 123.15828014 -103.0625 120.85546875 C-102.88736113 119.25600391 -102.71181855 117.65658323 -102.53588867 116.0572052 C-102.07273659 111.83936796 -101.61380658 107.62108322 -101.15612793 103.40264893 C-100.42439045 96.66084621 -99.68814784 89.91954127 -98.94839478 83.17861366 C-98.69102467 80.82519867 -98.43657638 78.47148042 -98.18237305 76.11772156 C-98.02403574 74.66855691 -97.86559399 73.21940367 -97.70703125 71.77026367 C-97.57014893 70.50832687 -97.4332666 69.24639008 -97.29223633 67.94621277 C-96.9384672 65.1302007 -96.4795958 62.39619451 -95.875 59.625 C-96.43372803 59.74093506 -96.99245605 59.85687012 -97.56811523 59.97631836 C-100.14872403 60.50927307 -102.73058459 61.03591316 -105.3125 61.5625 C-106.19099609 61.74490234 -107.06949219 61.92730469 -107.97460938 62.11523438 C-108.84794922 62.29248047 -109.72128906 62.46972656 -110.62109375 62.65234375 C-111.41185303 62.81468506 -112.2026123 62.97702637 -113.01733398 63.14428711 C-119.85522646 64.29454856 -126.626517 64.78717159 -133.5546875 64.828125 C-134.35687714 64.83509399 -135.15906677 64.84206299 -135.98556519 64.84924316 C-138.57376399 64.86658077 -141.16174545 64.87296793 -143.75 64.875 C-145.08158142 64.87651062 -145.08158142 64.87651062 -146.44006348 64.87805176 C-161.764143 64.86633136 -176.71546279 64.02515434 -191.875 61.625 C-192.84421387 61.47514648 -193.81342773 61.32529297 -194.81201172 61.17089844 C-197.56899206 60.72929404 -200.31587305 60.25171856 -203.0625 59.75 C-204.2386084 59.54455566 -204.2386084 59.54455566 -205.43847656 59.33496094 C-213.27503072 57.74568167 -219.62075281 53.84558231 -224.62109375 47.578125 C-228.55057669 41.45743506 -229.95997768 34.60685583 -228.40625 27.47265625 C-226.48144211 20.7702002 -223.41675058 14.98032258 -217.5078125 11.05078125 C-209.90659079 7.01913022 -203.30129975 6.24862058 -194.80859375 7.5859375 C-194.0526442 7.695961 -193.29669464 7.8059845 -192.51783752 7.91934204 C-190.1145773 8.27028431 -187.71353166 8.63414694 -185.3125 9 C-146.36903828 14.85208331 -108.59208389 15.12870992 -74.18286133 -6.16308594 C-66.51442888 -10.89438914 -58.76036405 -14.65525212 -49.875 -16.375 C-49.215 -16.5090625 -48.555 -16.643125 -47.875 -16.78125 C-30.30189731 -19.62395779 -12.56329867 -11.9184936 0 0 Z " fill="#010002" transform="translate(453.875,146.375)"/>
<path d="M0 0 C11.55 0 23.1 0 35 0 C35 18.39088335 35 18.39088335 34.42089844 25.46606445 C34.35904861 26.28334518 34.29719879 27.10062592 34.23347473 27.94267273 C34.03180899 30.58341457 33.82110405 33.22332869 33.609375 35.86328125 C33.46173881 37.74869151 33.31438592 39.63412397 33.16729736 41.51957703 C32.8587991 45.45391367 32.54552115 49.3878339 32.22900391 53.3215332 C31.90972054 57.2952959 31.59754669 61.26950548 31.29248047 65.24438477 C23.96537125 160.68303528 23.96537125 160.68303528 -1.09765625 184.375 C-12.08339909 193.7591253 -22.50091521 195.92870217 -37 198 C-37.33 221.76 -37.66 245.52 -38 270 C-30.08 270 -22.16 270 -14 270 C-2.6509298 273.34392247 5.92721677 279.72852688 12 290 C15.13951462 296.68024517 17.07641413 303.5725467 17 311 C16 312 16 312 13.68334961 312.11352539 C12.68311768 312.10828857 11.68288574 312.10305176 10.65234375 312.09765625 C9.57275391 312.09443359 8.49316406 312.09121094 7.38085938 312.08789062 C5.67639648 312.07532227 5.67639648 312.07532227 3.9375 312.0625 C2.79732422 312.05798828 1.65714844 312.05347656 0.48242188 312.04882812 C-2.34510351 312.03699747 -5.1725264 312.0205141 -8 312 C-8.1868335 311.38511719 -8.37366699 310.77023437 -8.56616211 310.13671875 C-8.82147705 309.32847656 -9.07679199 308.52023437 -9.33984375 307.6875 C-9.58855225 306.88699219 -9.83726074 306.08648437 -10.09350586 305.26171875 C-11.64071618 301.40140191 -14.31545821 298.84227089 -18 297 C-20.3062661 296.88721715 -22.61584955 296.84058993 -24.92480469 296.82299805 C-25.63722321 296.81642685 -26.34964172 296.80985565 -27.08364868 296.80308533 C-29.44639183 296.78334104 -31.80907133 296.77168616 -34.171875 296.76171875 C-34.97896156 296.75764322 -35.78604813 296.7535677 -36.61759186 296.74936867 C-40.89089198 296.72850129 -45.16415994 296.71420352 -49.4375 296.70483398 C-53.84710498 296.69377904 -58.25620401 296.65939203 -62.66563034 296.61966228 C-66.05947798 296.59348665 -69.45320538 296.58514124 -72.84714508 296.58155251 C-74.47221537 296.57668753 -76.09728033 296.565076 -77.72225189 296.54651451 C-80.00111142 296.52210585 -82.27866633 296.52309071 -84.55761719 296.5300293 C-85.85286316 296.52416306 -87.14810913 296.51829681 -88.48260498 296.51225281 C-92.63518784 297.0880797 -94.76957748 298.37209405 -98 301 C-100.35339578 304.8141242 -101.1060598 307.53029898 -102 312 C-110.25 312 -118.5 312 -127 312 C-127 299.30209832 -123.73415736 289.39447167 -115 280 C-101.92902977 268.6718258 -91.4177682 270 -73 270 C-73 247.23 -73 224.46 -73 201 C-90.16 201 -107.32 201 -125 201 C-125.020625 195.410625 -125.04125 189.82125 -125.0625 184.0625 C-125.071604 182.29656494 -125.08070801 180.53062988 -125.09008789 178.71118164 C-125.09300714 177.31917395 -125.09555567 175.92716541 -125.09765625 174.53515625 C-125.10277222 173.80615112 -125.10788818 173.077146 -125.11315918 172.3260498 C-125.11347011 170.55029924 -125.06228515 168.77465792 -125 167 C-123.18191373 165.18191373 -120.34257551 165.86550194 -117.89819336 165.8581543 C-115.93365456 165.84760262 -115.93365456 165.84760262 -113.9294281 165.83683777 C-113.22341398 165.83502188 -112.51739986 165.83320599 -111.78999138 165.83133507 C-109.57169567 165.82416005 -107.35361998 165.808477 -105.13539124 165.78999329 C-98.82524002 165.73763688 -92.5151967 165.68975465 -86.20483398 165.67407227 C-82.34546383 165.66385282 -78.48662982 165.63416462 -74.62747383 165.59275246 C-73.16983711 165.58061141 -71.71212393 165.57528952 -70.2544384 165.57755089 C-54.1665169 165.59633032 -38.12407339 163.07734716 -25.6953125 151.93359375 C-14.85312764 140.49815726 -10.61694094 126.31553925 -8.99633789 110.94702148 C-8.9132969 110.17743072 -8.83025591 109.40783995 -8.74469852 108.61492825 C-7.78940112 99.43994126 -7.15212611 90.24141268 -6.52273369 81.03935432 C-6.30322883 77.83175947 -6.0789437 74.62452794 -5.85353088 71.41734314 C-5.29615523 63.47388078 -4.7465098 55.52988769 -4.19702148 47.58587646 C-3.72896137 40.82285882 -3.25778172 34.06007324 -2.78227425 27.297575 C-2.56145154 24.13853914 -2.34527798 20.97920679 -2.1292572 17.81983948 C-1.99452722 15.89688504 -1.85957557 13.97394611 -1.72436523 12.05102539 C-1.66564743 11.17371765 -1.60692963 10.29640991 -1.5464325 9.39251709 C-1.30982608 6.08278872 -1.05392963 3.16178889 0 0 Z " fill="#010002" transform="translate(477,186)"/>
<path d="M0 0 C11.82083148 8.54078843 20.19653411 20.62950024 24.125 34.75 C26.65909148 50.68729821 24.33630692 66.59795773 15.625 80.3125 C5.94852337 93.34735429 -7.1253906 101.92429134 -23.1875 104.625 C-40.16421186 106.66441019 -55.4243213 102.75639683 -68.96875 92.3125 C-80.04181861 82.97376744 -87.53599192 69.77786841 -89.375 55.3125 C-90.8255955 37.79546042 -86.14137309 22.66568544 -75.0625 9 C-55.60255398 -11.89018704 -23.75461119 -14.73084694 0 0 Z " fill="#010002" transform="translate(444.375,22.6875)"/>
<path d="M0 0 C10.56 38.94 21.12 77.88 32 118 C63.54865842 118.28942717 63.54865842 118.28942717 95.09741211 118.56811523 C101.18664551 118.6270752 101.18664551 118.6270752 104.03346252 118.65589905 C106.03006852 118.67517325 108.02669405 118.69248248 110.02333069 118.70826721 C113.04027587 118.73249412 116.05710111 118.76287385 119.07397461 118.79467773 C119.96973929 118.80044799 120.86550398 118.80621824 121.78841305 118.81216335 C127.88597366 118.88597366 127.88597366 118.88597366 129 120 C129.09880797 121.47652664 129.13079245 122.95767236 129.1328125 124.4375 C129.13410156 125.33210938 129.13539063 126.22671875 129.13671875 127.1484375 C129.13285156 128.08945313 129.12898437 129.03046875 129.125 130 C129.12886719 130.94101563 129.13273438 131.88203125 129.13671875 132.8515625 C129.13478516 134.19347656 129.13478516 134.19347656 129.1328125 135.5625 C129.13168457 136.38878906 129.13055664 137.21507812 129.12939453 138.06640625 C129 140 129 140 128 141 C126.5325104 141.09565123 125.06043116 141.12188309 123.58982849 141.12025452 C122.63765442 141.12162918 121.68548035 141.12300385 120.70445251 141.12442017 C119.65141434 141.12082489 118.59837616 141.11722961 117.51342773 141.11352539 C116.41112823 141.11367142 115.30882874 141.11381744 114.17312622 141.1139679 C110.50992908 141.11326821 106.84678206 141.10547324 103.18359375 141.09765625 C100.65153532 141.09579227 98.11947652 141.09436827 95.5874176 141.09336853 C89.59151751 141.08993346 83.59563911 141.08204269 77.59974772 141.07201904 C70.77518942 141.06085677 63.95063028 141.05534717 57.12606514 141.05032361 C43.08403336 141.03986004 29.04201767 141.0222613 15 141 C10.33784606 126.71251331 6.41981924 112.22935333 2.4765625 97.73046875 C2.12340351 96.43405883 1.77016565 95.13767039 1.41685104 93.84130287 C-0.42679436 87.07602064 -2.26685868 80.30977472 -4.10400391 73.54272461 C-5.81309906 67.24779175 -7.53092127 60.95528224 -9.25249803 54.66375273 C-10.73708823 49.23659294 -12.2152196 43.80770069 -13.68838561 38.37742883 C-14.56565037 35.14425427 -15.44561018 31.91187223 -16.33228683 28.68126488 C-17.31458903 25.09584421 -18.28630788 21.50771895 -19.25537109 17.91870117 C-19.55033478 16.85123657 -19.84529846 15.78377197 -20.14920044 14.68395996 C-20.40985291 13.71008835 -20.67050537 12.73621674 -20.9390564 11.73283386 C-21.1694631 10.88620776 -21.3998698 10.03958166 -21.63725853 9.16730022 C-22 7 -22 7 -21 4 C-18.21173206 2.92143514 -15.55533963 2.0464912 -12.6875 1.25 C-11.91470703 1.01667969 -11.14191406 0.78335938 -10.34570312 0.54296875 C-6.15027068 -0.66191039 -4.41640162 -1.10410041 0 0 Z " fill="#010002" transform="translate(85,65)"/>
</svg>
