<?xml version="1.0" encoding="iso-8859-1"?>
<!-- Uploaded to: SVG Repo, www.svgrepo.com, Generator: SVG Repo Mixer Tools -->
<svg fill="#000000" height="800px" width="800px" version="1.1" id="Layer_1" xmlns="http://www.w3.org/2000/svg" xmlns:xlink="http://www.w3.org/1999/xlink" 
	 viewBox="0 0 512.001 512.001" xml:space="preserve">
<g>
	<g>
		<path d="M492.191,213.663c-14.532-17.318-34.939-27.941-57.461-29.912c-2.47-0.216-4.974-0.325-7.442-0.325
			c-10.468,0-20.725,1.919-30.512,5.714l-112.265,43.972l79.735-90.478c8.578-9.8,14.642-21.172,18.027-33.8
			c12.079-45.079-14.769-91.582-59.849-103.661c-7.188-1.925-14.573-2.903-21.951-2.903c-15.814,0-31.075,4.365-44.475,12.672
			c-13.4-8.307-28.661-12.672-44.475-12.672c-7.377,0-14.763,0.977-21.95,2.903c-45.08,12.08-71.928,58.581-59.849,103.661
			c3.383,12.628,9.448,24,18.044,33.822l79.717,90.456L115.196,189.13c-9.76-3.785-20.017-5.704-30.485-5.704
			c-2.468,0-4.971,0.109-7.442,0.326c-22.522,1.97-42.929,12.593-57.461,29.912C5.277,230.982-1.642,252.923,0.33,275.446
			c2.048,23.411,13.582,44.64,31.901,59.077c-4.755,22.835,0.058,46.511,13.537,65.761c15.826,22.601,41.769,36.097,69.399,36.099
			c17.411,0,34.175-5.296,48.48-15.314c10.709-7.498,19.321-17.087,25.61-28.524l58.554-107.348v66.169
			c0,52.102,7.883,103.457,23.429,152.64c1.104,3.492,4.33,5.724,7.808,5.724c0.818,0,1.65-0.123,2.471-0.383
			c4.313-1.364,6.705-5.965,5.342-10.279c-15.041-47.584-22.668-97.278-22.668-147.702v-66.169l58.567,107.372
			c6.275,11.413,14.887,21,25.597,28.499c14.307,10.018,31.071,15.314,48.48,15.314c27.628,0,53.572-13.495,69.399-36.099
			c13.479-19.25,18.292-42.927,13.537-65.761c18.319-14.437,29.852-35.667,31.901-59.077
			C513.641,252.923,506.724,230.982,492.191,213.663z M174.888,384.677c-5.057,9.196-12,16.926-20.638,22.974
			c-11.539,8.079-25.052,12.351-39.078,12.351c-22.296-0.002-43.223-10.885-55.986-29.114
			c-11.757-16.789-15.336-37.758-9.823-57.529c0.941-3.376-0.369-6.976-3.26-8.958c-16.933-11.602-27.669-29.966-29.456-50.384
			c-1.589-18.163,3.99-35.857,15.709-49.823c11.72-13.967,28.177-22.534,46.34-24.123c1.996-0.175,4.02-0.263,6.013-0.263
			c8.434,0,16.698,1.546,24.537,4.586l123.576,48.403L76.53,309.682c-4.252,1.548-6.442,6.248-4.896,10.499
			c1.548,4.251,6.247,6.443,10.499,4.896l156.295-56.886L174.888,384.677z M256.001,122.405c-4.523,0-8.191,3.667-8.191,8.191
			v100.798l-87.731-99.548c-6.912-7.897-11.801-17.065-14.53-27.25c-4.719-17.612-2.298-36.006,6.819-51.795
			c9.117-15.789,23.835-27.083,41.446-31.802c5.806-1.555,11.764-2.345,17.711-2.345c14.283,0,28.014,4.423,39.708,12.791
			c2.85,2.039,6.682,2.039,9.533,0c11.694-8.368,25.426-12.791,39.708-12.791c5.947,0,11.905,0.79,17.711,2.345
			c17.61,4.719,32.33,16.014,41.446,31.802c9.116,15.789,11.537,34.183,6.819,51.795c-2.729,10.185-7.618,19.353-14.511,27.229
			l-87.748,99.569V130.596C264.192,126.072,260.524,122.405,256.001,122.405z M495.352,274.017
			c-1.787,20.418-12.522,38.782-29.456,50.384c-2.891,1.981-4.201,5.582-3.26,8.958c5.514,19.772,1.934,40.74-9.823,57.529
			c-12.765,18.23-33.692,29.114-55.98,29.114c-14.029,0-27.544-4.271-39.084-12.351c-8.638-6.048-15.581-13.777-20.625-22.949
			l-63.552-116.511l156.295,56.886c0.925,0.336,1.87,0.496,2.8,0.496c3.345,0,6.487-2.066,7.697-5.392
			c1.548-4.251-0.644-8.951-4.896-10.499l-156.294-56.886l123.55-48.393c9.723-3.771,20.131-5.248,30.576-4.332
			c18.163,1.589,34.62,10.156,46.34,24.123C491.361,238.161,496.941,255.854,495.352,274.017z"/>
	</g>
</g>
<g>
	<g>
		<path d="M256,56.878c-4.524,0-8.191,3.667-8.191,8.191v32.764c0,4.524,3.667,8.191,8.191,8.191s8.191-3.667,8.191-8.191V65.069
			C264.191,60.545,260.523,56.878,256,56.878z"/>
	</g>
</g>
</svg>