<?xml version="1.0" ?><!-- Uploaded to: SVG Repo, www.svgrepo.com, Generator: SVG Repo Mixer Tools -->
<svg fill="#000000" width="800px" height="800px" viewBox="0 0 32 32" data-name="Layer 1" id="Layer_1" xmlns="http://www.w3.org/2000/svg"><title/><path d="M29.93,11.65a.31.31,0,0,0-.05-.1.9.9,0,0,0-.14-.2.27.27,0,0,0-.07-.08.87.87,0,0,0-.23-.16l-.06,0h0L17,6.31V5h2a1,1,0,0,0,1-1V3a1,1,0,0,0-1-1H16a1,1,0,0,0-1,1V6.31L2.64,11.07h0l-.06,0a.87.87,0,0,0-.23.16.27.27,0,0,0-.07.08.9.9,0,0,0-.14.2.31.31,0,0,0-.05.1A1,1,0,0,0,2,12v4a1,1,0,0,0,1,1H4V29a1,1,0,0,0,.43.82,1,1,0,0,0,.91.12L7.88,29A13.89,13.89,0,0,0,16,21.15,13.89,13.89,0,0,0,24.12,29l2.54.92A1,1,0,0,0,27,30a1,1,0,0,0,1-1V17h1a1,1,0,0,0,1-1V12A1,1,0,0,0,29.93,11.65ZM16,8.07,23.61,11H8.39ZM7.2,27.14,6,27.57V17h9A11.88,11.88,0,0,1,7.2,27.14Zm18.8.43-1.2-.43A11.88,11.88,0,0,1,17.05,17h9ZM28,15H4V13H28Z"/></svg>